<svg width="148" height="73" viewBox="0 0 132 73" fill="none" xmlns="http://www.w3.org/2000/svg">
<path d="M27.8238 61V50.8182H33.9289V51.9119H29.0567V55.3523H33.4715V56.446H29.0567V61H27.8238ZM37.0548 50.8182V61H35.8815V50.8182H37.0548ZM39.2037 61V53.3636H40.377V61H39.2037ZM39.8003 52.0909C39.5716 52.0909 39.3744 52.013 39.2087 51.8572C39.0463 51.7015 38.9651 51.5142 38.9651 51.2955C38.9651 51.0767 39.0463 50.8894 39.2087 50.7337C39.3744 50.5779 39.5716 50.5 39.8003 50.5C40.029 50.5 40.2246 50.5779 40.387 50.7337C40.5527 50.8894 40.6356 51.0767 40.6356 51.2955C40.6356 51.5142 40.5527 51.7015 40.387 51.8572C40.2246 52.013 40.029 52.0909 39.8003 52.0909ZM42.526 63.8636V53.3636H43.6595V54.5767H43.7987C43.8849 54.4441 44.0042 54.2751 44.1567 54.0696C44.3125 53.8608 44.5345 53.6752 44.8229 53.5128C45.1146 53.3471 45.509 53.2642 46.0061 53.2642C46.6491 53.2642 47.2159 53.425 47.7064 53.7464C48.1969 54.0679 48.5798 54.5237 48.8548 55.1136C49.1299 55.7036 49.2675 56.3996 49.2675 57.2017C49.2675 58.0104 49.1299 58.7114 48.8548 59.3047C48.5798 59.8946 48.1986 60.352 47.7114 60.6768C47.2242 60.9983 46.6624 61.1591 46.026 61.1591C45.5355 61.1591 45.1427 61.0779 44.8477 60.9155C44.5528 60.7498 44.3257 60.5625 44.1666 60.3537C44.0075 60.1416 43.8849 59.9659 43.7987 59.8267H43.6993V63.8636H42.526ZM43.6794 57.1818C43.6794 57.7585 43.7639 58.2673 43.933 58.7081C44.102 59.1456 44.3489 59.4886 44.6737 59.7372C44.9986 59.9825 45.3963 60.1051 45.8669 60.1051C46.3575 60.1051 46.7668 59.9759 47.0949 59.7173C47.4263 59.4555 47.6749 59.1042 47.8406 58.6634C48.0097 58.2192 48.0942 57.7254 48.0942 57.1818C48.0942 56.6449 48.0113 56.161 47.8456 55.7301C47.6832 55.2959 47.4363 54.9529 47.1048 54.701C46.7767 54.4458 46.3641 54.3182 45.8669 54.3182C45.3896 54.3182 44.9886 54.4392 44.6638 54.6811C44.339 54.9197 44.0937 55.2545 43.928 55.6854C43.7623 56.1129 43.6794 56.6117 43.6794 57.1818ZM63.347 54H62.1141C62.0412 53.6454 61.9136 53.3338 61.7313 53.0653C61.5523 52.7969 61.3335 52.5715 61.075 52.3892C60.8198 52.2036 60.5364 52.0644 60.2249 51.9716C59.9133 51.8788 59.5885 51.8324 59.2504 51.8324C58.634 51.8324 58.0755 51.9882 57.575 52.2997C57.0779 52.6113 56.6818 53.0703 56.3868 53.6768C56.0951 54.2834 55.9493 55.0275 55.9493 55.9091C55.9493 56.7907 56.0951 57.5348 56.3868 58.1413C56.6818 58.7479 57.0779 59.2069 57.575 59.5185C58.0755 59.83 58.634 59.9858 59.2504 59.9858C59.5885 59.9858 59.9133 59.9394 60.2249 59.8466C60.5364 59.7538 60.8198 59.6162 61.075 59.4339C61.3335 59.2483 61.5523 59.0213 61.7313 58.7528C61.9136 58.4811 62.0412 58.1695 62.1141 57.8182H63.347C63.2542 58.3385 63.0852 58.8042 62.8399 59.2152C62.5947 59.6262 62.2897 59.9759 61.9252 60.2642C61.5606 60.5492 61.1512 60.7663 60.6972 60.9155C60.2464 61.0646 59.7642 61.1392 59.2504 61.1392C58.3821 61.1392 57.6098 60.9271 56.9337 60.5028C56.2575 60.0786 55.7256 59.4754 55.3378 58.6932C54.95 57.911 54.7561 56.983 54.7561 55.9091C54.7561 54.8352 54.95 53.9072 55.3378 53.125C55.7256 52.3428 56.2575 51.7396 56.9337 51.3153C57.6098 50.8911 58.3821 50.679 59.2504 50.679C59.7642 50.679 60.2464 50.7536 60.6972 50.9027C61.1512 51.0518 61.5606 51.2706 61.9252 51.5589C62.2897 51.844 62.5947 52.192 62.8399 52.603C63.0852 53.0107 63.2542 53.4763 63.347 54ZM67.4275 61.179C66.9436 61.179 66.5044 61.0878 66.11 60.9055C65.7156 60.7199 65.4024 60.4531 65.1704 60.1051C64.9384 59.7538 64.8224 59.3295 64.8224 58.8324C64.8224 58.3949 64.9085 58.0402 65.0809 57.7685C65.2532 57.4934 65.4836 57.2779 65.7719 57.1222C66.0603 56.9664 66.3785 56.8504 66.7265 56.7741C67.0778 56.6946 67.4308 56.6316 67.7854 56.5852C68.2494 56.5256 68.6256 56.4808 68.914 56.451C69.2056 56.4179 69.4178 56.3632 69.5503 56.2869C69.6862 56.2107 69.7542 56.0781 69.7542 55.8892V55.8494C69.7542 55.3589 69.6199 54.9777 69.3515 54.706C69.0863 54.4342 68.6836 54.2983 68.1434 54.2983C67.5832 54.2983 67.1441 54.4209 66.8259 54.6662C66.5077 54.9115 66.284 55.1733 66.1547 55.4517L65.0411 55.054C65.24 54.59 65.5051 54.2287 65.8366 53.9702C66.1713 53.7083 66.5359 53.526 66.9303 53.4233C67.328 53.3172 67.7191 53.2642 68.1036 53.2642C68.3489 53.2642 68.6306 53.294 68.9488 53.3537C69.2703 53.41 69.5802 53.5277 69.8785 53.7067C70.1801 53.8857 70.4303 54.1558 70.6292 54.517C70.828 54.8783 70.9275 55.3622 70.9275 55.9688V61H69.7542V59.9659H69.6945C69.615 60.1316 69.4824 60.3089 69.2968 60.4979C69.1112 60.6868 68.8643 60.8475 68.556 60.9801C68.2478 61.1127 67.8716 61.179 67.4275 61.179ZM67.6064 60.125C68.0705 60.125 68.4616 60.0339 68.7797 59.8516C69.1012 59.6693 69.3432 59.4339 69.5056 59.1456C69.6713 58.8572 69.7542 58.554 69.7542 58.2358V57.1619C69.7045 57.2216 69.5951 57.2763 69.426 57.326C69.2603 57.3724 69.0681 57.4138 68.8493 57.4503C68.6339 57.4834 68.4234 57.5133 68.218 57.5398C68.0158 57.563 67.8517 57.5829 67.7258 57.5994C67.4208 57.6392 67.1358 57.7038 66.8706 57.7933C66.6088 57.8795 66.3967 58.0104 66.2343 58.1861C66.0752 58.3584 65.9956 58.5937 65.9956 58.892C65.9956 59.2997 66.1465 59.608 66.4481 59.8168C66.753 60.0223 67.1391 60.125 67.6064 60.125ZM73.069 61V53.3636H74.2025V54.5568H74.3019C74.461 54.1491 74.7179 53.8326 75.0725 53.6072C75.4272 53.3786 75.8531 53.2642 76.3502 53.2642C76.854 53.2642 77.2733 53.3786 77.608 53.6072C77.9461 53.8326 78.2096 54.1491 78.3985 54.5568H78.4781C78.6736 54.1624 78.9669 53.8492 79.358 53.6172C79.7491 53.3819 80.2181 53.2642 80.765 53.2642C81.4478 53.2642 82.0062 53.478 82.4404 53.9055C82.8746 54.3298 83.0917 54.991 83.0917 55.8892V61H81.9184V55.8892C81.9184 55.3258 81.7643 54.9231 81.4561 54.6811C81.1478 54.4392 80.7849 54.3182 80.3673 54.3182C79.8303 54.3182 79.4144 54.4806 79.1194 54.8054C78.8244 55.1269 78.6769 55.5346 78.6769 56.0284V61H77.4838V55.7699C77.4838 55.3357 77.3429 54.986 77.0612 54.7209C76.7794 54.4524 76.4165 54.3182 75.9724 54.3182C75.6675 54.3182 75.3824 54.3994 75.1173 54.5618C74.8554 54.7242 74.6433 54.9496 74.4809 55.2379C74.3218 55.523 74.2423 55.8527 74.2423 56.2273V61H73.069ZM88.4387 61.1591C87.7029 61.1591 87.0682 60.9967 86.5345 60.6719C86.0042 60.3438 85.5949 59.8864 85.3066 59.2997C85.0215 58.7098 84.879 58.0237 84.879 57.2415C84.879 56.4593 85.0215 55.7699 85.3066 55.1733C85.5949 54.5734 85.9959 54.1061 86.5097 53.7713C87.0267 53.4332 87.6299 53.2642 88.3193 53.2642C88.7171 53.2642 89.1098 53.3305 89.4976 53.4631C89.8854 53.5956 90.2384 53.8111 90.5566 54.1094C90.8747 54.4044 91.1283 54.7955 91.3172 55.2827C91.5061 55.7699 91.6006 56.3698 91.6006 57.0824V57.5795H85.7142V56.5653H90.4074C90.4074 56.1345 90.3212 55.75 90.1489 55.4119C89.9798 55.0739 89.7379 54.8071 89.423 54.6115C89.1115 54.416 88.7436 54.3182 88.3193 54.3182C87.852 54.3182 87.4477 54.4342 87.1063 54.6662C86.7682 54.8949 86.508 55.1932 86.3257 55.5611C86.1434 55.929 86.0523 56.3234 86.0523 56.7443V57.4205C86.0523 57.9972 86.1517 58.486 86.3506 58.8871C86.5528 59.2848 86.8328 59.5881 87.1908 59.7969C87.5487 60.0024 87.9647 60.1051 88.4387 60.1051C88.7469 60.1051 89.0253 60.062 89.2739 59.9759C89.5258 59.8864 89.7429 59.7538 89.9252 59.5781C90.1075 59.3991 90.2483 59.1771 90.3477 58.9119L91.4813 59.2301C91.3619 59.6146 91.1614 59.9527 90.8797 60.2443C90.598 60.5327 90.25 60.758 89.8357 60.9205C89.4214 61.0795 88.9557 61.1591 88.4387 61.1591ZM93.3854 61V53.3636H94.5189V54.517H94.5985C94.7377 54.1392 94.9896 53.8326 95.3541 53.5973C95.7187 53.362 96.1297 53.2443 96.5871 53.2443C96.6733 53.2443 96.781 53.246 96.9102 53.2493C97.0395 53.2526 97.1373 53.2576 97.2036 53.2642V54.4574C97.1638 54.4474 97.0727 54.4325 96.9301 54.4126C96.7909 54.3894 96.6434 54.3778 96.4877 54.3778C96.1164 54.3778 95.785 54.4557 95.4933 54.6115C95.205 54.764 94.9763 54.9761 94.8073 55.2479C94.6415 55.5163 94.5587 55.8229 94.5587 56.1676V61H93.3854ZM100.842 61.179C100.358 61.179 99.9185 61.0878 99.5241 60.9055C99.1296 60.7199 98.8164 60.4531 98.5844 60.1051C98.3524 59.7538 98.2364 59.3295 98.2364 58.8324C98.2364 58.3949 98.3226 58.0402 98.4949 57.7685C98.6673 57.4934 98.8976 57.2779 99.186 57.1222C99.4743 56.9664 99.7925 56.8504 100.141 56.7741C100.492 56.6946 100.845 56.6316 101.199 56.5852C101.664 56.5256 102.04 56.4808 102.328 56.451C102.62 56.4179 102.832 56.3632 102.964 56.2869C103.1 56.2107 103.168 56.0781 103.168 55.8892V55.8494C103.168 55.3589 103.034 54.9777 102.766 54.706C102.5 54.4342 102.098 54.2983 101.557 54.2983C100.997 54.2983 100.558 54.4209 100.24 54.6662C99.9218 54.9115 99.6981 55.1733 99.5688 55.4517L98.4552 55.054C98.654 54.59 98.9192 54.2287 99.2506 53.9702C99.5854 53.7083 99.95 53.526 100.344 53.4233C100.742 53.3172 101.133 53.2642 101.518 53.2642C101.763 53.2642 102.045 53.294 102.363 53.3537C102.684 53.41 102.994 53.5277 103.293 53.7067C103.594 53.8857 103.844 54.1558 104.043 54.517C104.242 54.8783 104.342 55.3622 104.342 55.9688V61H103.168V59.9659H103.109C103.029 60.1316 102.896 60.3089 102.711 60.4979C102.525 60.6868 102.278 60.8475 101.97 60.9801C101.662 61.1127 101.286 61.179 100.842 61.179ZM101.021 60.125C101.485 60.125 101.876 60.0339 102.194 59.8516C102.515 59.6693 102.757 59.4339 102.92 59.1456C103.085 58.8572 103.168 58.554 103.168 58.2358V57.1619C103.119 57.2216 103.009 57.2763 102.84 57.326C102.674 57.3724 102.482 57.4138 102.263 57.4503C102.048 57.4834 101.838 57.5133 101.632 57.5398C101.43 57.563 101.266 57.5829 101.14 57.5994C100.835 57.6392 100.55 57.7038 100.285 57.7933C100.023 57.8795 99.8108 58.0104 99.6483 58.1861C99.4893 58.3584 99.4097 58.5937 99.4097 58.892C99.4097 59.2997 99.5605 59.608 99.8621 59.8168C100.167 60.0223 100.553 60.125 101.021 60.125Z" fill="#5C5858"/>
<g clip-path="url(#clip0_484_1918)">
<path d="M93.0003 14.2547V32.8394C92.974 32.9128 92.9327 32.985 92.9252 33.061C92.497 37.1577 88.9219 41.0315 83.6957 40.9986C73.8904 40.939 64.0838 40.9821 54.2773 40.9783C53.8417 40.9783 53.4036 40.9542 52.9692 40.9099C48.6342 40.4779 45.0891 36.6928 45.0453 32.3022C44.9865 26.4726 44.9852 20.6404 45.0453 14.8108C45.0929 10.3315 48.797 6.47552 53.2095 6.19049C54.2673 6.12209 55.3326 6.12589 56.3928 6.15123C57.214 6.17149 57.7623 5.81933 58.1191 5.09855C58.3081 4.71725 58.4896 4.33216 58.6974 3.96226C60.0744 1.51741 62.1661 0.165777 64.9301 0.0695035C67.6439 -0.0255036 70.3653 -0.0217033 73.0792 0.0682368C75.8457 0.159444 77.9387 1.50728 79.3194 3.94833C79.5435 4.34482 79.7375 4.75905 79.9453 5.16695C80.2845 5.8358 80.8103 6.16643 81.5689 6.14616C82.3963 6.12462 83.2238 6.13602 84.0512 6.14362C88.1433 6.18036 91.6095 8.84689 92.6786 12.7865C92.81 13.2692 92.8939 13.7657 93.0003 14.256V14.2547ZM80.9442 23.3184C81.0031 23.274 81.0607 23.2297 81.1195 23.1854C81.2559 23.3766 81.3673 23.592 81.5313 23.7554C82.1334 24.3533 82.9809 24.3685 83.543 23.8099C84.1038 23.2525 84.1088 22.3721 83.5254 21.7704C82.5515 20.7659 81.5689 19.7714 80.5775 18.7859C79.9566 18.169 79.1492 18.1652 78.5333 18.777C77.5419 19.7626 76.5592 20.757 75.5841 21.7603C74.9945 22.367 74.9895 23.2322 75.5465 23.7985C76.1023 24.3635 76.9498 24.3521 77.5619 23.7693C77.7234 23.6148 77.8799 23.4539 78.1202 23.2145C78.1039 23.5274 78.1064 23.7009 78.0839 23.872C77.7634 26.3295 76.6794 28.3728 74.7842 29.9461C71.2253 32.9002 66.1155 32.7076 62.7494 29.5318C62.4866 29.2836 62.1486 29.0568 61.8081 28.9669C61.1935 28.8035 60.6001 29.1353 60.3197 29.6864C60.023 30.2691 60.1582 30.9354 60.6765 31.4523C66.4372 37.1805 76.1511 35.4907 79.72 28.1422C80.4585 26.6208 80.8629 25.0146 80.9442 23.3209V23.3184ZM57.0801 22.2834L56.9173 22.4076C56.7696 22.2074 56.6444 21.9832 56.4679 21.8122C55.8633 21.2244 55.0109 21.232 54.4563 21.8097C53.9218 22.367 53.9193 23.2259 54.4876 23.8137C55.4703 24.8296 56.4642 25.8354 57.4681 26.8298C58.0527 27.4088 58.8626 27.429 59.4447 26.8577C60.4762 25.8468 61.4926 24.8182 62.4916 23.7744C63.0373 23.2031 63.0111 22.3506 62.4866 21.8071C61.9433 21.2434 61.1021 21.227 60.5075 21.7805C60.331 21.9452 60.1858 22.1466 60.0268 22.3316C59.9742 22.2999 59.9204 22.2682 59.8678 22.2378C59.9642 21.6716 60.0218 21.0939 60.1632 20.5391C61.9045 13.6695 70.2201 11.2461 75.3124 16.1168C76.036 16.8085 76.8847 16.8592 77.4705 16.246C78.0651 15.6241 77.9712 14.7437 77.2352 14.0368C71.9989 9.01411 63.6269 9.78176 59.3683 15.6811C57.9501 17.6458 57.1965 19.8525 57.0801 22.2834Z" fill="#585858"/>
</g>
<defs>
<clipPath id="clip0_484_1918">
<rect width="48" height="41" fill="white" transform="translate(45)"/>
</clipPath>
</defs>
</svg>
