<svg width="48" height="41" viewBox="0 0 48 41" fill="none" xmlns="http://www.w3.org/2000/svg">
<g clip-path="url(#clip0_1_28)">
<path d="M48.0003 14.2547V32.8394C47.974 32.9129 47.9327 32.9851 47.9252 33.0611C47.497 37.1578 43.9219 41.0315 38.6957 40.9986C28.8904 40.9391 19.0838 40.9821 9.2773 40.9783C8.84168 40.9783 8.40355 40.9543 7.96918 40.9099C3.63422 40.478 0.0891415 36.6929 0.0453288 32.3023C-0.0135055 26.4726 -0.0147573 20.6405 0.0453288 14.8108C0.0928969 10.3316 3.79695 6.47555 8.20952 6.19053C9.26729 6.12212 10.3326 6.12592 11.3928 6.15126C12.214 6.17152 12.7623 5.81936 13.1191 5.09858C13.3081 4.71728 13.4896 4.33219 13.6974 3.96229C15.0744 1.51744 17.1661 0.165808 19.9301 0.0695341C22.6439 -0.0254731 25.3653 -0.0216728 28.0792 0.0682673C30.8457 0.159474 32.9387 1.50731 34.3194 3.94836C34.5435 4.34485 34.7375 4.75908 34.9453 5.16698C35.2845 5.83583 35.8103 6.16646 36.5689 6.14619C37.3963 6.12465 38.2238 6.13605 39.0512 6.14365C43.1433 6.18039 46.6095 8.84692 47.6786 12.7866C47.81 13.2692 47.8939 13.7658 48.0003 14.256V14.2547ZM35.9442 23.3184C36.0031 23.2741 36.0607 23.2297 36.1195 23.1854C36.2559 23.3767 36.3673 23.592 36.5313 23.7554C37.1334 24.3534 37.9809 24.3686 38.543 23.8099C39.1038 23.2525 39.1088 22.3721 38.5254 21.7704C37.5515 20.7659 36.5689 19.7715 35.5775 18.7859C34.9566 18.169 34.1492 18.1652 33.5333 18.7771C32.5419 19.7626 31.5592 20.757 30.5841 21.7603C29.9945 22.3671 29.9895 23.2323 30.5465 23.7985C31.1023 24.3635 31.9498 24.3521 32.5619 23.7694C32.7234 23.6148 32.8799 23.454 33.1202 23.2145C33.1039 23.5274 33.1064 23.701 33.0839 23.872C32.7634 26.3295 31.6794 28.3728 29.7842 29.9461C26.2253 32.9002 21.1155 32.7076 17.7494 29.5319C17.4866 29.2836 17.1486 29.0568 16.8081 28.9669C16.1935 28.8035 15.6001 29.1354 15.3197 29.6864C15.023 30.2691 15.1582 30.9354 15.6765 31.4523C21.4372 37.1806 31.1511 35.4907 34.72 28.1422C35.4585 26.6209 35.8629 25.0146 35.9442 23.3209V23.3184ZM12.0801 22.2835L11.9173 22.4076C11.7696 22.2075 11.6444 21.9832 11.4679 21.8122C10.8633 21.2245 10.0109 21.2321 9.45631 21.8097C8.92179 22.3671 8.91929 23.2259 9.4876 23.8137C10.4703 24.8297 11.4642 25.8355 12.4681 26.8299C13.0527 27.4088 13.8626 27.429 14.4447 26.8577C15.4762 25.8469 16.4926 24.8183 17.4916 23.7744C18.0373 23.2031 18.0111 22.3506 17.4866 21.8072C16.9433 21.2435 16.1021 21.227 15.5075 21.7806C15.331 21.9452 15.1858 22.1467 15.0268 22.3316C14.9742 22.2999 14.9204 22.2683 14.8678 22.2379C14.9642 21.6716 15.0218 21.094 15.1632 20.5391C16.9045 13.6695 25.2201 11.2462 30.3124 16.1169C31.036 16.8085 31.8847 16.8592 32.4705 16.2461C33.0651 15.6241 32.9712 14.7437 32.2352 14.0368C26.9989 9.01414 18.6269 9.78179 14.3683 15.6811C12.9501 17.6458 12.1965 19.8525 12.0801 22.2835Z" fill="#585858"/>
</g>
<defs>
<clipPath id="clip0_1_28">
<rect width="48" height="41" fill="white"/>
</clipPath>
</defs>
</svg>
