<svg width="84" height="80" viewBox="0 0 84 80" fill="none" xmlns="http://www.w3.org/2000/svg">
<circle cx="38" cy="38" r="38" fill="#A9A9A9"/>
<path d="M37.5001 37.5632C50.413 37.5632 60.9187 48.0691 60.9187 60.9819C60.9187 61.5439 60.4625 62.0001 59.9005 62.0001H15.0996C14.5375 62.0001 14.0814 61.5439 14.0814 60.9819C14.0814 48.069 24.5872 37.5632 37.5001 37.5632Z" fill="white"/>
<path d="M37.5 35.4004C31.3143 35.4004 26.2998 30.3859 26.2998 24.2002C26.2998 18.0145 31.3143 13 37.5 13C43.6857 13 48.7002 18.0145 48.7002 24.2002C48.7002 30.3859 43.6857 35.4004 37.5 35.4004Z" fill="white"/>
<circle cx="66.5" cy="62.5" r="17.5" fill="#59C547"/>
<path d="M59.625 62.6667L64.1458 67.1875L73.1875 57.5" stroke="white" stroke-width="3" stroke-linecap="round" stroke-linejoin="round"/>
</svg>
