<svg width="76" height="76" viewBox="0 0 76 76" fill="none" xmlns="http://www.w3.org/2000/svg">
<circle cx="38" cy="38" r="38" fill="#A9A9A9"/>
<g clip-path="url(#clip0_365_1916)">
<path d="M37.5001 36.5632C50.413 36.5632 60.9187 47.0691 60.9187 59.9819C60.9187 60.5439 60.4625 61.0001 59.9005 61.0001H15.0996C14.5375 61.0001 14.0814 60.5439 14.0814 59.9819C14.0814 47.069 24.5872 36.5632 37.5001 36.5632Z" fill="white"/>
<path d="M37.5 34.4004C31.3143 34.4004 26.2998 29.3859 26.2998 23.2002C26.2998 17.0145 31.3143 12 37.5 12C43.6857 12 48.7002 17.0145 48.7002 23.2002C48.7002 29.3859 43.6857 34.4004 37.5 34.4004Z" fill="white"/>
</g>
<defs>
<clipPath id="clip0_365_1916">
<rect width="49" height="49" fill="white" transform="matrix(-1 0 0 1 62 12)"/>
</clipPath>
</defs>
</svg>
