<svg width="76" height="76" viewBox="0 0 76 76" fill="none" xmlns="http://www.w3.org/2000/svg">
<circle cx="38" cy="38" r="38" fill="#A9A9A9"/>
<path d="M58.2031 16.1562H51.1806C50.0213 16.1562 49.1269 17.1187 49.1269 18.2875C49.1269 19.4562 50.0544 20.4188 51.1806 20.4188H58.2031V29.0813C58.2031 30.2844 59.1306 31.2125 60.2569 31.2125C61.3831 31.2125 62.3106 30.25 62.3106 29.0813V20.4531C62.3106 18.0813 60.4556 16.1562 58.17 16.1562H58.2031ZM14.71 31.2469C15.8694 31.2469 16.7638 30.2844 16.7638 29.1156V20.4531H23.8856C25.045 20.4531 25.9394 19.4906 25.9394 18.3219C25.9394 17.1531 25.0119 16.1906 23.8856 16.1906H16.7969C14.5113 16.1906 12.6562 18.1156 12.6562 20.4875V29.15C12.6562 30.3531 13.5838 31.2813 14.71 31.2813V31.2469ZM23.8856 56.5469H16.7969V47.8844C16.7969 46.6812 15.8694 45.7531 14.7431 45.7531C13.6169 45.7531 12.6894 46.7156 12.6894 47.8844V56.5469C12.6894 58.9187 14.5444 60.8438 16.83 60.8438H23.8856C25.045 60.8438 25.9394 59.8813 25.9394 58.7125C25.9394 57.5438 25.0119 56.5813 23.8856 56.5813V56.5469ZM60.29 45.7531C59.1306 45.7531 58.2363 46.7156 58.2363 47.8844V56.5469H51.2138C50.0544 56.5469 49.16 57.5094 49.16 58.6781C49.16 59.8469 50.0875 60.8094 51.2138 60.8094H58.2363C60.5219 60.8094 62.3769 58.8844 62.3769 56.5125V47.85C62.3769 46.6469 61.4494 45.7188 60.3231 45.7188L60.29 45.7531Z" fill="white"/>
<path d="M31.2725 23.2031H24.3494C22.0637 23.2031 20.2087 25.1281 20.2087 27.5V32.7938C20.2087 35.1656 22.0637 37.0906 24.3494 37.0906H31.2725C33.5581 37.0906 35.4131 35.1656 35.4131 32.7938V27.5C35.4131 25.1281 33.5581 23.2031 31.2725 23.2031ZM31.2725 32.7938H24.3494V27.5H31.2725V32.7938ZM54.7912 49.5V44.2062C54.7912 41.8344 52.9362 39.9094 50.6506 39.9094H43.7275C41.4419 39.9094 39.5869 41.8344 39.5869 44.2062V49.5C39.5869 51.8719 41.4419 53.7969 43.7275 53.7969H50.6506C52.9362 53.7969 54.7912 51.8719 54.7912 49.5ZM43.7275 44.2062H50.6506V49.5H43.7275V44.2062ZM39.5869 31.1094H47.9344V35.4062H39.5869V31.1094ZM39.5869 24.9219H54.7912V29.2188H39.5869V24.9219ZM27.0656 41.5937H35.4131V45.8906H27.0656V41.5937ZM20.2087 47.7812H35.4131V52.0781H20.2087V47.7812Z" fill="white"/>
</svg>
