<svg width="132" height="76" viewBox="0 0 132 76" fill="none" xmlns="http://www.w3.org/2000/svg">
<path d="M14.3806 53.8182H15.6135V60.5597C15.6135 61.2557 15.4495 61.8771 15.1214 62.424C14.7966 62.9676 14.3375 63.3968 13.7442 63.7116C13.151 64.0232 12.4549 64.179 11.6562 64.179C10.8574 64.179 10.1614 64.0232 9.56809 63.7116C8.97482 63.3968 8.51412 62.9676 8.18599 62.424C7.86118 61.8771 7.69877 61.2557 7.69877 60.5597V53.8182H8.93173V60.4602C8.93173 60.9574 9.0411 61.3999 9.25985 61.7876C9.4786 62.1721 9.79016 62.4754 10.1945 62.6974C10.6022 62.9162 11.0894 63.0256 11.6562 63.0256C12.2229 63.0256 12.7101 62.9162 13.1178 62.6974C13.5255 62.4754 13.837 62.1721 14.0525 61.7876C14.2712 61.3999 14.3806 60.9574 14.3806 60.4602V53.8182ZM17.9166 66.8636V56.3636H19.0502V57.5767H19.1894C19.2755 57.4441 19.3949 57.2751 19.5473 57.0696C19.7031 56.8608 19.9252 56.6752 20.2135 56.5128C20.5052 56.3471 20.8996 56.2642 21.3968 56.2642C22.0397 56.2642 22.6065 56.425 23.097 56.7464C23.5876 57.0679 23.9704 57.5237 24.2455 58.1136C24.5206 58.7036 24.6581 59.3996 24.6581 60.2017C24.6581 61.0104 24.5206 61.7114 24.2455 62.3047C23.9704 62.8946 23.5892 63.352 23.102 63.6768C22.6148 63.9983 22.053 64.1591 21.4166 64.1591C20.9261 64.1591 20.5334 64.0779 20.2384 63.9155C19.9434 63.7498 19.7164 63.5625 19.5573 63.3537C19.3982 63.1416 19.2755 62.9659 19.1894 62.8267H19.0899V66.8636H17.9166ZM19.07 60.1818C19.07 60.7585 19.1546 61.2673 19.3236 61.7081C19.4926 62.1456 19.7396 62.4886 20.0644 62.7372C20.3892 62.9825 20.7869 63.1051 21.2575 63.1051C21.7481 63.1051 22.1574 62.9759 22.4855 62.7173C22.817 62.4555 23.0655 62.1042 23.2313 61.6634C23.4003 61.2192 23.4848 60.7254 23.4848 60.1818C23.4848 59.6449 23.402 59.161 23.2362 58.7301C23.0738 58.2959 22.8269 57.9529 22.4955 57.701C22.1673 57.4458 21.7547 57.3182 21.2575 57.3182C20.7803 57.3182 20.3792 57.4392 20.0544 57.6811C19.7296 57.9197 19.4843 58.2545 19.3186 58.6854C19.1529 59.1129 19.07 59.6117 19.07 60.1818ZM27.6212 53.8182V64H26.4479V53.8182H27.6212ZM32.8724 64.1591C32.183 64.1591 31.5782 63.995 31.0578 63.6669C30.5407 63.3388 30.1364 62.8797 29.8447 62.2898C29.5564 61.6998 29.4122 61.0104 29.4122 60.2216C29.4122 59.4261 29.5564 58.7318 29.8447 58.1385C30.1364 57.5452 30.5407 57.0845 31.0578 56.7564C31.5782 56.4283 32.183 56.2642 32.8724 56.2642C33.5618 56.2642 34.165 56.4283 34.6821 56.7564C35.2024 57.0845 35.6068 57.5452 35.8952 58.1385C36.1868 58.7318 36.3327 59.4261 36.3327 60.2216C36.3327 61.0104 36.1868 61.6998 35.8952 62.2898C35.6068 62.8797 35.2024 63.3388 34.6821 63.6669C34.165 63.995 33.5618 64.1591 32.8724 64.1591ZM32.8724 63.1051C33.3961 63.1051 33.827 62.9709 34.165 62.7024C34.5031 62.4339 34.7533 62.081 34.9157 61.6435C35.0782 61.206 35.1594 60.732 35.1594 60.2216C35.1594 59.7112 35.0782 59.2356 34.9157 58.7947C34.7533 58.3539 34.5031 57.9976 34.165 57.7259C33.827 57.4541 33.3961 57.3182 32.8724 57.3182C32.3488 57.3182 31.9179 57.4541 31.5798 57.7259C31.2417 57.9976 30.9915 58.3539 30.8291 58.7947C30.6667 59.2356 30.5855 59.7112 30.5855 60.2216C30.5855 60.732 30.6667 61.206 30.8291 61.6435C30.9915 62.081 31.2417 62.4339 31.5798 62.7024C31.9179 62.9709 32.3488 63.1051 32.8724 63.1051ZM40.3708 64.179C39.8869 64.179 39.4478 64.0878 39.0534 63.9055C38.6589 63.7199 38.3457 63.4531 38.1137 63.1051C37.8817 62.7538 37.7657 62.3295 37.7657 61.8324C37.7657 61.3949 37.8519 61.0402 38.0242 60.7685C38.1966 60.4934 38.4269 60.2779 38.7153 60.1222C39.0036 59.9664 39.3218 59.8504 39.6698 59.7741C40.0212 59.6946 40.3741 59.6316 40.7288 59.5852C41.1928 59.5256 41.569 59.4808 41.8573 59.451C42.149 59.4179 42.3611 59.3632 42.4937 59.2869C42.6296 59.2107 42.6975 59.0781 42.6975 58.8892V58.8494C42.6975 58.3589 42.5633 57.9777 42.2948 57.706C42.0297 57.4342 41.627 57.2983 41.0867 57.2983C40.5266 57.2983 40.0874 57.4209 39.7693 57.6662C39.4511 57.9115 39.2274 58.1733 39.0981 58.4517L37.9845 58.054C38.1833 57.59 38.4485 57.2287 38.7799 56.9702C39.1147 56.7083 39.4793 56.526 39.8737 56.4233C40.2714 56.3172 40.6625 56.2642 41.047 56.2642C41.2922 56.2642 41.574 56.294 41.8921 56.3537C42.2136 56.41 42.5235 56.5277 42.8218 56.7067C43.1234 56.8857 43.3737 57.1558 43.5725 57.517C43.7714 57.8783 43.8708 58.3622 43.8708 58.9688V64H42.6975V62.9659H42.6379C42.5583 63.1316 42.4258 63.3089 42.2401 63.4979C42.0545 63.6868 41.8076 63.8475 41.4994 63.9801C41.1911 64.1127 40.815 64.179 40.3708 64.179ZM40.5498 63.125C41.0138 63.125 41.4049 63.0339 41.7231 62.8516C42.0446 62.6693 42.2865 62.4339 42.449 62.1456C42.6147 61.8572 42.6975 61.554 42.6975 61.2358V60.1619C42.6478 60.2216 42.5384 60.2763 42.3694 60.326C42.2037 60.3724 42.0115 60.4138 41.7927 60.4503C41.5773 60.4834 41.3668 60.5133 41.1613 60.5398C40.9591 60.563 40.7951 60.5829 40.6691 60.5994C40.3642 60.6392 40.0792 60.7038 39.814 60.7933C39.5522 60.8795 39.3401 61.0104 39.1776 61.1861C39.0186 61.3584 38.939 61.5937 38.939 61.892C38.939 62.2997 39.0898 62.608 39.3914 62.8168C39.6963 63.0223 40.0825 63.125 40.5498 63.125ZM48.8959 64.1591C48.2595 64.1591 47.6977 63.9983 47.2105 63.6768C46.7233 63.352 46.3421 62.8946 46.067 62.3047C45.7919 61.7114 45.6544 61.0104 45.6544 60.2017C45.6544 59.3996 45.7919 58.7036 46.067 58.1136C46.3421 57.5237 46.7249 57.0679 47.2155 56.7464C47.706 56.425 48.2728 56.2642 48.9157 56.2642C49.4129 56.2642 49.8057 56.3471 50.094 56.5128C50.3857 56.6752 50.6077 56.8608 50.7602 57.0696C50.916 57.2751 51.037 57.4441 51.1231 57.5767H51.2226V53.8182H52.3959V64H51.2623V62.8267H51.1231C51.037 62.9659 50.9143 63.1416 50.7552 63.3537C50.5961 63.5625 50.3691 63.7498 50.0741 63.9155C49.7791 64.0779 49.3864 64.1591 48.8959 64.1591ZM49.055 63.1051C49.5256 63.1051 49.9233 62.9825 50.2481 62.7372C50.5729 62.4886 50.8199 62.1456 50.9889 61.7081C51.1579 61.2673 51.2425 60.7585 51.2425 60.1818C51.2425 59.6117 51.1596 59.1129 50.9939 58.6854C50.8282 58.2545 50.5829 57.9197 50.2581 57.6811C49.9333 57.4392 49.5322 57.3182 49.055 57.3182C48.5578 57.3182 48.1435 57.4458 47.8121 57.701C47.4839 57.9529 47.237 58.2959 47.0713 58.7301C46.9089 59.161 46.8277 59.6449 46.8277 60.1818C46.8277 60.7254 46.9105 61.2192 47.0763 61.6634C47.2453 62.1042 47.4939 62.4555 47.822 62.7173C48.1534 62.9759 48.5644 63.1051 49.055 63.1051ZM61.9463 64H58.8042V53.8182H62.0855C63.0732 53.8182 63.9184 54.022 64.621 54.4297C65.3237 54.834 65.8622 55.4157 66.2368 56.1747C66.6113 56.9304 66.7986 57.8352 66.7986 58.8892C66.7986 59.9498 66.6096 60.8629 66.2318 61.6286C65.854 62.3909 65.3038 62.9775 64.5812 63.3885C63.8587 63.7962 62.9804 64 61.9463 64ZM60.0372 62.9062H61.8667C62.7086 62.9062 63.4063 62.7438 63.9598 62.419C64.5133 62.0942 64.9259 61.6319 65.1977 61.032C65.4695 60.4321 65.6054 59.7178 65.6054 58.8892C65.6054 58.0672 65.4711 57.3596 65.2027 56.7663C64.9342 56.1697 64.5332 55.7124 63.9996 55.3942C63.4659 55.0727 62.8014 54.9119 62.0059 54.9119H60.0372V62.9062ZM71.8099 64.1591C71.1205 64.1591 70.5157 63.995 69.9953 63.6669C69.4782 63.3388 69.0739 62.8797 68.7822 62.2898C68.4939 61.6998 68.3497 61.0104 68.3497 60.2216C68.3497 59.4261 68.4939 58.7318 68.7822 58.1385C69.0739 57.5452 69.4782 57.0845 69.9953 56.7564C70.5157 56.4283 71.1205 56.2642 71.8099 56.2642C72.4993 56.2642 73.1025 56.4283 73.6196 56.7564C74.1399 57.0845 74.5443 57.5452 74.8327 58.1385C75.1243 58.7318 75.2702 59.4261 75.2702 60.2216C75.2702 61.0104 75.1243 61.6998 74.8327 62.2898C74.5443 62.8797 74.1399 63.3388 73.6196 63.6669C73.1025 63.995 72.4993 64.1591 71.8099 64.1591ZM71.8099 63.1051C72.3336 63.1051 72.7645 62.9709 73.1025 62.7024C73.4406 62.4339 73.6908 62.081 73.8532 61.6435C74.0157 61.206 74.0969 60.732 74.0969 60.2216C74.0969 59.7112 74.0157 59.2356 73.8532 58.7947C73.6908 58.3539 73.4406 57.9976 73.1025 57.7259C72.7645 57.4541 72.3336 57.3182 71.8099 57.3182C71.2863 57.3182 70.8554 57.4541 70.5173 57.7259C70.1792 57.9976 69.929 58.3539 69.7666 58.7947C69.6042 59.2356 69.523 59.7112 69.523 60.2216C69.523 60.732 69.6042 61.206 69.7666 61.6435C69.929 62.081 70.1792 62.4339 70.5173 62.7024C70.8554 62.9709 71.2863 63.1051 71.8099 63.1051ZM80.1634 64.1591C79.4475 64.1591 78.8311 63.9901 78.314 63.652C77.797 63.3139 77.3992 62.8482 77.1208 62.255C76.8424 61.6617 76.7032 60.9839 76.7032 60.2216C76.7032 59.446 76.8457 58.7616 77.1308 58.1683C77.4191 57.5717 77.8202 57.1061 78.3339 56.7713C78.8509 56.4332 79.4542 56.2642 80.1436 56.2642C80.6805 56.2642 81.1644 56.3636 81.5953 56.5625C82.0261 56.7614 82.3791 57.0398 82.6542 57.3977C82.9293 57.7557 83.1 58.1733 83.1663 58.6506H81.993C81.9035 58.3026 81.7046 57.9943 81.3964 57.7259C81.0915 57.4541 80.6805 57.3182 80.1634 57.3182C79.7061 57.3182 79.305 57.4375 78.9603 57.6761C78.6189 57.9115 78.3521 58.2446 78.1599 58.6754C77.971 59.103 77.8765 59.6051 77.8765 60.1818C77.8765 60.7718 77.9693 61.2855 78.1549 61.723C78.3438 62.1605 78.609 62.5002 78.9504 62.7422C79.2951 62.9841 79.6994 63.1051 80.1634 63.1051C80.4684 63.1051 80.7451 63.0521 80.9937 62.946C81.2423 62.84 81.4527 62.6875 81.6251 62.4886C81.7974 62.2898 81.9201 62.0511 81.993 61.7727H83.1663C83.1 62.2235 82.9359 62.6295 82.6741 62.9908C82.4156 63.3487 82.0725 63.6338 81.645 63.8459C81.2207 64.0547 80.7269 64.1591 80.1634 64.1591ZM89.694 60.8778V56.3636H90.8673V64H89.694V62.7074H89.6144C89.4355 63.0952 89.157 63.425 88.7792 63.6967C88.4014 63.9652 87.9241 64.0994 87.3474 64.0994C86.8701 64.0994 86.4459 63.995 86.0747 63.7862C85.7035 63.5741 85.4118 63.2559 85.1997 62.8317C84.9875 62.4041 84.8815 61.8655 84.8815 61.2159V56.3636H86.0548V61.1364C86.0548 61.6932 86.2106 62.1373 86.5221 62.4688C86.837 62.8002 87.238 62.9659 87.7252 62.9659C88.0169 62.9659 88.3135 62.8913 88.6151 62.7422C88.9201 62.593 89.1753 62.3643 89.3808 62.0561C89.5896 61.7479 89.694 61.3551 89.694 60.8778ZM93.0162 64V56.3636H94.1498V57.5568H94.2492C94.4083 57.1491 94.6652 56.8326 95.0198 56.6072C95.3744 56.3786 95.8003 56.2642 96.2975 56.2642C96.8013 56.2642 97.2206 56.3786 97.5553 56.6072C97.8934 56.8326 98.1569 57.1491 98.3458 57.5568H98.4253C98.6209 57.1624 98.9142 56.8492 99.3053 56.6172C99.6964 56.3819 100.165 56.2642 100.712 56.2642C101.395 56.2642 101.954 56.478 102.388 56.9055C102.822 57.3298 103.039 57.991 103.039 58.8892V64H101.866V58.8892C101.866 58.3258 101.712 57.9231 101.403 57.6811C101.095 57.4392 100.732 57.3182 100.315 57.3182C99.7776 57.3182 99.3617 57.4806 99.0667 57.8054C98.7717 58.1269 98.6242 58.5346 98.6242 59.0284V64H97.431V58.7699C97.431 58.3357 97.2902 57.986 97.0084 57.7209C96.7267 57.4524 96.3638 57.3182 95.9197 57.3182C95.6147 57.3182 95.3297 57.3994 95.0645 57.5618C94.8027 57.7242 94.5906 57.9496 94.4282 58.2379C94.2691 58.523 94.1895 58.8527 94.1895 59.2273V64H93.0162ZM108.386 64.1591C107.65 64.1591 107.015 63.9967 106.482 63.6719C105.951 63.3438 105.542 62.8864 105.254 62.2997C104.969 61.7098 104.826 61.0237 104.826 60.2415C104.826 59.4593 104.969 58.7699 105.254 58.1733C105.542 57.5734 105.943 57.1061 106.457 56.7713C106.974 56.4332 107.577 56.2642 108.267 56.2642C108.664 56.2642 109.057 56.3305 109.445 56.4631C109.833 56.5956 110.186 56.8111 110.504 57.1094C110.822 57.4044 111.076 57.7955 111.264 58.2827C111.453 58.7699 111.548 59.3698 111.548 60.0824V60.5795H105.661V59.5653H110.355C110.355 59.1345 110.268 58.75 110.096 58.4119C109.927 58.0739 109.685 57.8071 109.37 57.6115C109.059 57.416 108.691 57.3182 108.267 57.3182C107.799 57.3182 107.395 57.4342 107.054 57.6662C106.715 57.8949 106.455 58.1932 106.273 58.5611C106.091 58.929 106 59.3234 106 59.7443V60.4205C106 60.9972 106.099 61.486 106.298 61.8871C106.5 62.2848 106.78 62.5881 107.138 62.7969C107.496 63.0024 107.912 63.1051 108.386 63.1051C108.694 63.1051 108.973 63.062 109.221 62.9759C109.473 62.8864 109.69 62.7538 109.872 62.5781C110.055 62.3991 110.196 62.1771 110.295 61.9119L111.429 62.2301C111.309 62.6146 111.109 62.9527 110.827 63.2443C110.545 63.5327 110.197 63.758 109.783 63.9205C109.369 64.0795 108.903 64.1591 108.386 64.1591ZM114.506 59.4062V64H113.333V56.3636H114.466V57.5568H114.566C114.745 57.169 115.016 56.8575 115.381 56.6222C115.746 56.3835 116.216 56.2642 116.793 56.2642C117.31 56.2642 117.762 56.3703 118.15 56.5824C118.538 56.7912 118.84 57.1094 119.055 57.5369C119.27 57.9612 119.378 58.4981 119.378 59.1477V64H118.205V59.2273C118.205 58.6274 118.049 58.16 117.737 57.8253C117.426 57.4872 116.998 57.3182 116.455 57.3182C116.08 57.3182 115.746 57.3994 115.451 57.5618C115.159 57.7242 114.929 57.9612 114.759 58.2727C114.59 58.5843 114.506 58.9621 114.506 59.4062ZM124.843 56.3636V57.358H120.886V56.3636H124.843ZM122.039 54.5341H123.212V61.8125C123.212 62.1439 123.261 62.3925 123.357 62.5582C123.456 62.7206 123.582 62.83 123.734 62.8864C123.89 62.9394 124.054 62.9659 124.227 62.9659C124.356 62.9659 124.462 62.9593 124.545 62.946C124.628 62.9295 124.694 62.9162 124.744 62.9062L124.982 63.9602C124.903 63.9901 124.792 64.0199 124.649 64.0497C124.507 64.0829 124.326 64.0994 124.107 64.0994C123.776 64.0994 123.451 64.0282 123.133 63.8857C122.818 63.7431 122.556 63.526 122.347 63.2344C122.142 62.9427 122.039 62.5748 122.039 62.1307V54.5341Z" fill="#5C5858"/>
<g clip-path="url(#clip0_509_1917)">
<path d="M88 41.9999H43V25.9893H49.777V35.2345H81.223V25.9893H88V41.9999Z" fill="#585858"/>
<path d="M57.926 14.0504V30.8558H73.0738V14.0504H79.5743L65.4999 0L51.4255 14.0504H57.926Z" fill="#585858"/>
</g>
<defs>
<clipPath id="clip0_509_1917">
<rect width="45" height="42" fill="white" transform="translate(43)"/>
</clipPath>
</defs>
</svg>
