<svg width="76" height="76" viewBox="0 0 76 76" fill="none" xmlns="http://www.w3.org/2000/svg">
<circle cx="38" cy="38" r="38" fill="#A9A9A9"/>
<g clip-path="url(#clip0_365_1917)">
<path d="M58.845 50.8241L50.8841 46.8441C50.1333 46.4683 49.6666 45.7133 49.6666 44.8733V42.0558C49.8575 41.8224 50.0583 41.5566 50.2658 41.2633C51.2983 39.8049 52.1258 38.1816 52.7275 36.4308C53.9033 35.8916 54.6666 34.7291 54.6666 33.4166V30.0833C54.6666 29.2808 54.3666 28.5033 53.8333 27.8958V23.4633C53.88 23.0049 54.0633 20.2766 52.09 18.0258C50.3783 16.0733 47.6008 15.0833 43.8333 15.0833C40.0658 15.0833 37.2883 16.0733 35.5766 18.0249C33.6033 20.2758 33.7866 23.0049 33.8333 23.4624V27.8949C33.3 28.5024 33 29.2799 33 30.0824V33.4158C33 34.4299 33.4608 35.3758 34.2475 36.0066C35.0108 39.0291 36.6083 41.3066 37.1666 42.0374V44.7949C37.1666 45.6016 36.7266 46.3416 36.0191 46.7283L28.585 50.7833C26.1683 52.1016 24.6675 54.6299 24.6675 57.3833V60.9166H63.0008V57.5474C63 54.6824 61.4075 52.1058 58.845 50.8241Z" fill="white"/>
<path d="M27.9858 49.6873L35.42 45.6323C35.7258 45.4648 35.9167 45.144 35.9167 44.7957V42.4507C35.1792 41.424 33.8783 39.3573 33.1358 36.6923C32.25 35.8323 31.75 34.6615 31.75 33.4165V30.0832C31.75 29.1465 32.0433 28.234 32.5833 27.4657V23.5215C32.555 23.2023 32.5217 22.464 32.6633 21.5257C31.5158 21.1257 30.2392 20.9165 28.8333 20.9165C20.1758 20.9165 19.6717 28.2957 19.6667 28.4165V32.2323C19.1267 32.8207 18.8333 33.4998 18.8333 34.174V37.0523C18.8333 37.9515 19.2358 38.7898 19.9258 39.3565C20.6133 41.9482 22.3042 43.9065 22.9625 44.594V46.8798C22.9625 47.5357 22.6058 48.1373 21.9867 48.4757L16.4425 51.9532C14.3192 53.1115 13 55.334 13 57.7523V60.9165H23.4167V57.3848C23.4167 54.174 25.1675 51.2248 27.9858 49.6873Z" fill="white"/>
</g>
<defs>
<clipPath id="clip0_365_1917">
<rect width="50" height="50" fill="white" transform="translate(13 13)"/>
</clipPath>
</defs>
</svg>
